<svg width="182" height="99" viewBox="0 0 182 99" fill="none" xmlns="http://www.w3.org/2000/svg">
<path fill-rule="evenodd" clip-rule="evenodd" d="M85.0769 97.6102C85.0769 98.1625 84.6292 98.6102 84.0769 98.6102C83.5246 98.6102 83.0769 98.1625 83.0769 97.6102V1.76408C83.0769 1.21179 83.5246 0.764076 84.0769 0.764076C84.6292 0.764076 85.0769 1.21179 85.0769 1.76408V97.6102ZM98.9231 76.841C98.9231 77.3933 98.4754 77.841 97.9231 77.841C97.3708 77.841 96.9231 77.3933 96.9231 76.841V16.9949C96.9231 16.4426 97.3708 15.9949 97.9231 15.9949C98.4754 15.9949 98.9231 16.4426 98.9231 16.9949V76.841ZM70.2308 77.841C70.7831 77.841 71.2308 77.3933 71.2308 76.841V16.9949C71.2308 16.4426 70.7831 15.9949 70.2308 15.9949C69.6785 15.9949 69.2308 16.4426 69.2308 16.9949V76.841C69.2308 77.3933 69.6785 77.841 70.2308 77.841ZM43.5385 68.0718C43.5385 68.6241 43.0907 69.0718 42.5385 69.0718C41.9862 69.0718 41.5385 68.6241 41.5385 68.0718V27.1487C41.5385 26.5964 41.9862 26.1487 42.5385 26.1487C43.0908 26.1487 43.5385 26.5964 43.5385 27.1487V68.0718ZM153.308 65.3795C153.86 65.3795 154.308 64.9317 154.308 64.3795V32.2256C154.308 31.6733 153.86 31.2256 153.308 31.2256C152.755 31.2256 152.308 31.6733 152.308 32.2256V64.3795C152.308 64.9317 152.755 65.3795 153.308 65.3795ZM112.769 64.3795C112.769 64.9317 112.322 65.3795 111.769 65.3795C111.217 65.3795 110.769 64.9317 110.769 64.3795V32.2256C110.769 31.6733 111.217 31.2256 111.769 31.2256C112.322 31.2256 112.769 31.6733 112.769 32.2256V64.3795ZM56.3846 62.1487C56.9369 62.1487 57.3846 61.701 57.3846 61.1487V34.9948C57.3846 34.4426 56.9369 33.9948 56.3846 33.9948C55.8323 33.9948 55.3846 34.4426 55.3846 34.9948V61.1487C55.3846 61.701 55.8323 62.1487 56.3846 62.1487ZM126.615 61.1487C126.615 61.701 126.168 62.1487 125.615 62.1487C125.063 62.1487 124.615 61.701 124.615 61.1487V34.9948C124.615 34.4426 125.063 33.9948 125.615 33.9948C126.168 33.9948 126.615 34.4426 126.615 34.9948V61.1487ZM167.154 57.5333C167.706 57.5333 168.154 57.0856 168.154 56.5333V40.0718C168.154 39.5195 167.706 39.0718 167.154 39.0718C166.602 39.0718 166.154 39.5195 166.154 40.0718V56.5333C166.154 57.0856 166.602 57.5333 167.154 57.5333ZM29.6923 61.1487C29.6923 61.701 29.2446 62.1487 28.6923 62.1487C28.14 62.1487 27.6923 61.701 27.6923 61.1487L27.6923 34.9948C27.6923 34.4426 28.14 33.9948 28.6923 33.9948C29.2446 33.9948 29.6923 34.4426 29.6923 34.9948L29.6923 61.1487ZM14.8462 57.5333C15.3984 57.5333 15.8462 57.0856 15.8462 56.5333L15.8462 40.0718C15.8462 39.5195 15.3984 39.0718 14.8462 39.0718C14.2939 39.0718 13.8462 39.5195 13.8462 40.0718L13.8462 56.5333C13.8462 57.0856 14.2939 57.5333 14.8462 57.5333ZM140.462 56.5333C140.462 57.0856 140.014 57.5333 139.462 57.5333C138.909 57.5333 138.462 57.0856 138.462 56.5333V40.0718C138.462 39.5195 138.909 39.0718 139.462 39.0718C140.014 39.0718 140.462 39.5195 140.462 40.0718V56.5333ZM181 53.3795C181.552 53.3795 182 52.9317 182 52.3795V46.5333C182 45.981 181.552 45.5333 181 45.5333C180.448 45.5333 180 45.981 180 46.5333V52.3795C180 52.9317 180.448 53.3795 181 53.3795ZM2 52.3795C2 52.9317 1.55228 53.3795 1 53.3795C0.447715 53.3795 0 52.9317 0 52.3795V46.5333C0 45.981 0.447716 45.5333 1 45.5333C1.55229 45.5333 2 45.981 2 46.5333L2 52.3795Z" fill="#194D44"/>
</svg>
