<svg width="1303" height="720" viewBox="0 0 1303 720" fill="none" xmlns="http://www.w3.org/2000/svg">
<path opacity="0.2" fill-rule="evenodd" clip-rule="evenodd" d="M1171 177C1219.6 177 1259 137.601 1259 89C1259 40.3989 1219.6 1 1171 1C1122.4 1 1083 40.3989 1083 89C1083 137.601 1122.4 177 1171 177ZM1171 178C1220.15 178 1260 138.153 1260 89C1260 39.8467 1220.15 0 1171 0C1121.85 0 1082 39.8467 1082 89C1082 138.153 1121.85 178 1171 178ZM166 674L43 600L43.5155 599.143L166.516 673.143L166 674ZM1041.16 336.253L1297.22 291.158L1301.38 314.795L1045.32 359.889L1041.16 336.253ZM1040 335.441L1040.98 335.268L1297.04 290.173L1298.03 290L1298.2 290.985L1302.37 314.621L1302.54 315.606L1301.55 315.779L1045.49 360.874L1044.51 361.047L1044.34 360.063L1040.17 336.426L1040 335.441ZM1104.62 591.293L1104.97 591.647L1199.35 686.071L1199.98 686.695L1199.12 686.909L1069.03 719.485L1068.52 719.611L1068.42 719.103L1052.51 643.744L1052.45 643.479L1052.65 643.287L1104.26 591.647L1104.62 591.293ZM1053.55 643.802L1069.29 718.389L1198.02 686.154L1104.62 592.707L1053.55 643.802ZM1.16122 117.527L0.5 117.301V118V197.206V410V411.478L1.39734 410.304L178.397 178.595L178.819 178.042L178.161 177.818L1.16122 117.527ZM1.5 197.206V118.699L177.181 178.541L1.5 408.522V197.206Z" fill="#006655"/>
</svg>
