<svg width="1354" height="694" viewBox="0 0 1354 694" fill="none" xmlns="http://www.w3.org/2000/svg">
<path opacity="0.1" fill-rule="evenodd" clip-rule="evenodd" d="M1240.5 74C1260.66 74 1277 57.6584 1277 37.5C1277 17.3416 1260.66 1 1240.5 1C1220.34 1 1204 17.3416 1204 37.5C1204 57.6584 1220.34 74 1240.5 74ZM1240.5 75C1261.21 75 1278 58.2107 1278 37.5C1278 16.7893 1261.21 0 1240.5 0C1219.79 0 1203 16.7893 1203 37.5C1203 58.2107 1219.79 75 1240.5 75ZM102.114 8.64659L101.761 8.29261L101.407 8.64659L0.646285 109.488L0.454834 109.68L0.510751 109.945L31.5591 257.103L31.6662 257.611L32.1698 257.485L286.121 193.873L286.977 193.658L286.354 193.034L102.114 8.64659ZM32.4303 256.389L1.54513 110.003L101.761 9.70739L285.023 193.117L32.4303 256.389ZM285 366C285 376.493 276.493 385 266 385C255.507 385 247 376.493 247 366C247 355.507 255.507 347 266 347C276.493 347 285 355.507 285 366ZM286 366C286 377.046 277.046 386 266 386C254.954 386 246 377.046 246 366C246 354.954 254.954 346 266 346C277.046 346 286 354.954 286 366ZM1001 307L1291 209L1290.68 208.053L1000.68 306.053L1001 307ZM319.577 663.518L68.4364 596.225L62.2247 619.407L313.365 686.7L319.577 663.518ZM68.6952 595.259L67.7293 595L67.4705 595.966L61.2588 619.148L61 620.114L61.9659 620.373L313.107 687.666L314.073 687.925L314.331 686.959L320.543 663.776L320.802 662.811L319.836 662.552L68.6952 595.259ZM1203.16 444.527L1202.5 444.302V445V512V692V693.476L1203.4 692.304L1353.4 496.304L1353.82 495.751L1353.16 495.527L1203.16 444.527ZM1203.5 512V445.698L1352.18 496.249L1203.5 690.524V512Z" fill="#00FFD4"/>
</svg>
