<svg width="1342" height="728" viewBox="0 0 1342 728" fill="none" xmlns="http://www.w3.org/2000/svg">
<path opacity="0.15" fill-rule="evenodd" clip-rule="evenodd" d="M89 177C137.601 177 177 137.601 177 89C177 40.3989 137.601 1 89 1C40.3989 1 1 40.3989 1 89C1 137.601 40.3989 177 89 177ZM89 178C138.153 178 178 138.153 178 89C178 39.8467 138.153 0 89 0C39.8467 0 0 39.8467 0 89C0 138.153 39.8467 178 89 178ZM752 201L462 299L461.68 298.053L751.68 200.053L752 201ZM105.158 661.253L361.218 616.158L365.38 639.795L109.321 684.889L105.158 661.253ZM104 660.441L104.985 660.268L361.044 615.173L362.029 615L362.203 615.985L366.365 639.621L366.539 640.606L365.554 640.779L109.494 685.874L108.509 686.047L108.336 685.062L104.173 661.426L104 660.441ZM1265.5 601.301L1266.16 601.527L1341.16 627.13L1341.82 627.354L1341.4 627.906L1266.4 726.303L1265.5 727.481V726V635.636V602V601.301ZM1266.5 602.699V635.636V724.519L1340.18 627.852L1266.5 602.699ZM1240.97 22.6465L1240.62 22.2927L1240.26 22.6465L1188.65 74.2872L1188.45 74.4788L1188.51 74.7439L1204.42 150.103L1204.52 150.611L1205.03 150.485L1335.12 117.909L1335.98 117.695L1335.35 117.071L1240.97 22.6465ZM1205.29 149.389L1189.55 74.8025L1240.62 23.7073L1334.02 117.154L1205.29 149.389Z" fill="#006655"/>
</svg>
