<svg width="20" height="18" viewBox="0 0 20 18" fill="none" xmlns="http://www.w3.org/2000/svg">
<path fill-rule="evenodd" clip-rule="evenodd" d="M2.09853 2.4538C2.24157 2.16831 2.51815 2 2.77785 2H17.0001C17.2598 2 17.5364 2.16831 17.6794 2.4538L9.88898 8.23309L2.09853 2.4538ZM0.000101254 2.86899C-1.9511e-05 2.87749 -3.2189e-05 2.88599 6.28965e-05 2.89448V14.1883C6.28965e-05 15.7213 1.19388 17.0723 2.77785 17.0723H17.0001C18.5841 17.0723 19.7779 15.7213 19.7779 14.1883V2.89439M17.7779 4.871V14.1883C17.7779 14.7277 17.3717 15.0723 17.0001 15.0723H2.77785C2.40625 15.0723 2.00006 14.7277 2.00006 14.1883V4.871L9.29318 10.2813C9.64701 10.5438 10.1309 10.5438 10.4848 10.2813L17.7779 4.871ZM19.7779 2.87058C19.7709 1.34312 18.5794 0 17.0001 0H2.77785C1.19907 0 0.00788379 1.34219 0.000101254 2.86899" fill="#171A1C"/>
</svg>
